<svg xmlns="http://www.w3.org/2000/svg" viewBox="0 0 1200 700" role="img" aria-labelledby="title desc">
  <title id="title">Ilustracion rustica</title>
  <desc id="desc">Paisaje rural con colinas, sol y una casa de campo</desc>
  <defs>
    <linearGradient id="cielo" x1="0" y1="0" x2="0" y2="1">
      <stop offset="0%" stop-color="#f8e5b7"/>
      <stop offset="100%" stop-color="#e6c27f"/>
    </linearGradient>
    <linearGradient id="tierra" x1="0" y1="0" x2="0" y2="1">
      <stop offset="0%" stop-color="#7d9b54"/>
      <stop offset="100%" stop-color="#58763a"/>
    </linearGradient>
  </defs>

  <rect width="1200" height="700" fill="url(#cielo)"/>
  <circle cx="980" cy="120" r="62" fill="#f7cf6f"/>

  <path d="M0 430 Q260 320 540 420 T1200 410 L1200 700 L0 700 Z" fill="#8ba75d"/>
  <path d="M0 490 Q260 380 540 470 T1200 460 L1200 700 L0 700 Z" fill="url(#tierra)"/>

  <rect x="450" y="360" width="180" height="130" fill="#c88f55"/>
  <polygon points="430,360 540,280 650,360" fill="#824b2a"/>
  <rect x="520" y="412" width="38" height="78" fill="#6f4328"/>
  <rect x="472" y="390" width="28" height="22" fill="#f4d19a"/>
  <rect x="579" y="390" width="28" height="22" fill="#f4d19a"/>

  <path d="M220 470 C220 405 260 350 320 336 C380 350 420 405 420 470" fill="#6d8d42"/>
  <rect x="307" y="470" width="26" height="64" fill="#6f4328"/>

  <path d="M760 500 C760 430 808 372 880 354 C952 372 1000 430 1000 500" fill="#6d8d42"/>
  <rect x="867" y="500" width="28" height="72" fill="#6f4328"/>
</svg>
